<?xml version="1.0" encoding="UTF-8"?>
<svg width="576px" height="98px" viewBox="0 0 576 98" version="1.1" xmlns="http://www.w3.org/2000/svg" xmlns:xlink="http://www.w3.org/1999/xlink">
    <!-- Generator: Sketch 47.1 (45422) - http://www.bohemiancoding.com/sketch -->
    <title>Metal_Gear_Solid_logo</title>
    <desc>Created with Sketch.</desc>
    <defs></defs>
    <g id="Page-1" stroke="none" stroke-width="1" fill="none" fill-rule="evenodd">
        <g id="Main-screen" transform="translate(-770.000000, -122.000000)" fill-rule="nonzero">
            <g id="Metal_Gear_Solid_logo" transform="translate(770.000000, 122.000000)">
                <polygon id="Shape" fill="#DD5252" points="548.108 97.468 23.509 97.468 28.197 74.921 541.57 74.921"></polygon>
                <g id="Group" fill="#DD5252">
                    <polygon id="Shape" points="0.361 97.827 21.724 0.445 43.59 0.408 43.664 36.951 65.197 0.408 89.101 0.445 73.907 69.194 53.375 69.194 59.639 41.398 45.11 69.194 30.693 69.194 30.656 42.25 18.52 97.938"></polygon>
                    <path d="M95.063,22.2 L142.872,22.2 L139.166,39.656 L109.888,39.656 L107.59,49.774 L136.831,49.774 L132.569,69.157 L84.649,69.194 L95.063,22.2 Z M95.063,22.2 L142.872,22.2 L139.166,39.656 L109.888,39.656 L107.59,49.774 L136.831,49.774 L132.569,69.157 L84.649,69.194 L95.063,22.2 Z M99.844,0.445 L147.801,0.408 L144.206,16.27 L96.286,16.27 L99.844,0.445 Z M99.844,0.445 L147.801,0.408 L144.206,16.27 L96.286,16.27 L99.844,0.445 Z" id="Shape"></path>
                    <polygon id="Shape" points="153.002 0.445 208.224 0.408 204.665 16.316 187.247 16.353 175.647 69.157 155.412 69.194 167.012 16.39 149.519 16.353"></polygon>
                    <path d="M209.372,22.349 L246.73,22.349 L253.068,69.194 L230.571,69.157 L228.199,41.361 L221.157,41.361 L206.703,69.194 L182.798,69.194 L208.037,24.313 L209.372,22.349 Z M245.878,16.234 L243.32,0.409 L220.564,0.409 L211.669,16.234 L245.878,16.234 Z" id="Shape"></path>
                    <polygon id="Shape" points="271.87 0.445 291.216 0.408 279.875 51.441 308.301 51.404 304.373 69.157 256.601 69.194"></polygon>
                    <polygon id="Shape" points="349.692 39.879 353.657 22.237 385.864 22.237 375.486 69.156 331.458 69.156 319.264 31.482 345.801 0.444 390.719 0.407 387.086 16.381 356.586 16.381 341.094 32.633 346.023 49.995 361.441 49.995 363.665 39.878 349.692 39.878"></polygon>
                    <path d="M394.185,22.2 L441.994,22.2 L438.288,39.656 L409.01,39.656 L406.712,49.774 L435.953,49.774 L431.691,69.157 L383.77,69.194 L394.185,22.2 Z M394.185,22.2 L441.994,22.2 L438.288,39.656 L409.01,39.656 L406.712,49.774 L435.953,49.774 L431.691,69.157 L383.77,69.194 L394.185,22.2 Z M398.965,0.445 L446.923,0.408 L443.328,16.27 L395.407,16.27 L398.965,0.445 Z M398.965,0.445 L446.923,0.408 L443.328,16.27 L395.407,16.27 L398.965,0.445 Z" id="Shape"></path>
                    <path d="M462.644,22.349 L500.001,22.349 L506.338,69.194 L483.842,69.157 L481.471,41.361 L474.428,41.361 L459.975,69.194 L436.07,69.194 L461.308,24.313 L462.644,22.349 Z M499.149,16.234 L496.59,0.409 L473.835,0.409 L464.939,16.234 L499.149,16.234 Z" id="Shape"></path>
                    <path d="M523.498,0.445 L557.779,0.445 L561.262,0.816 C566.896,1.409 570.38,4.24 571.714,9.308 C572.627,12.769 573.085,15.983 573.085,18.949 C573.085,26.686 569.86,32.398 563.411,36.081 L555.703,39.381 L575.914,97.939 L555.864,97.902 L534.429,40.398 L528.054,69.195 L508.264,69.195 L518.604,22.128 L552.812,22.128 L555.184,21.794 L556.407,21.313 L557.408,20.682 L557.928,19.571 L557.928,18.644 L557.408,17.533 L556.185,16.718 L554.85,16.31 L520.049,16.163 L523.498,0.445 Z" id="Shape"></path>
                </g>
                <g id="Group" transform="translate(167.000000, 77.000000)" fill="#E2E2E2">
                    <path d="M18.243,5.303 L13.403,5.272 C13.253,4.776 12.889,4.388 12.311,4.108 C11.733,3.829 11.099,3.687 10.409,3.687 C9.103,3.687 8.451,4.054 8.451,4.786 C8.451,5.024 8.545,5.223 8.732,5.385 C8.92,5.546 9.434,5.756 10.274,6.016 L13.426,6.953 C14.237,7.191 14.994,7.546 15.699,8.019 C16.404,8.494 16.911,9.011 17.219,9.572 C17.526,10.132 17.68,10.734 17.68,11.382 C17.68,13.041 16.895,14.415 15.328,15.502 C13.759,16.591 11.67,17.136 9.058,17.136 C6.822,17.136 4.871,16.759 3.205,16.004 C1.539,15.249 0.653,13.774 0.549,11.575 L5.433,11.608 C5.929,12.771 7.144,13.353 9.08,13.353 C9.891,13.353 10.476,13.229 10.836,12.981 C11.196,12.734 11.376,12.46 11.376,12.156 C11.376,11.942 11.305,11.759 11.162,11.608 C11.019,11.457 10.87,11.349 10.712,11.284 C10.554,11.22 9.808,10.972 8.472,10.542 C6.656,10.003 5.384,9.566 4.657,9.232 C3.929,8.898 3.321,8.408 2.833,7.761 C2.346,7.115 2.102,6.361 2.102,5.498 C2.102,3.989 2.766,2.713 4.094,1.667 C5.422,0.623 7.452,0.101 10.183,0.101 C12.269,0.101 14.055,0.468 15.541,1.2 C17.027,1.931 17.928,3.299 18.243,5.303 Z" id="Shape"></path>
                    <path d="M61.148,16.842 C58.852,16.842 56.863,16.228 55.182,15 C53.501,13.771 52.661,12.006 52.661,9.699 C52.661,7.048 53.602,4.792 55.486,2.928 C57.37,1.064 59.834,0.132 62.881,0.132 C65.312,0.132 67.308,0.783 68.868,2.087 C70.429,3.392 71.21,5.088 71.21,7.178 C71.21,9.872 70.283,12.155 68.43,14.031 C66.576,15.905 64.148,16.842 61.148,16.842 Z M61.192,13.157 C62.197,13.157 62.963,12.807 63.488,12.106 C64.013,11.407 64.426,10.382 64.726,9.037 C65.026,7.69 65.176,6.779 65.176,6.305 C65.176,5.508 64.947,4.899 64.489,4.479 C64.031,4.059 63.42,3.849 62.655,3.849 C61.214,3.849 60.197,4.673 59.605,6.323 C59.012,7.97 58.716,9.431 58.716,10.702 C58.717,12.338 59.542,13.157 61.192,13.157 Z" id="Shape"></path>
                    <polygon id="Shape" points="125.145 12.803 124.177 16.811 107.61 16.811 111.661 0.1 119.022 0.1 115.938 12.803"></polygon>
                    <polygon id="Shape" points="171.921 0.132 167.757 16.811 160.666 16.811 164.83 0.132"></polygon>
                    <path d="M205.305,16.811 L208.906,0.132 L216.087,0.132 C217.814,0.132 219.216,0.229 220.296,0.423 C221.377,0.615 222.424,1.037 223.437,1.683 C224.451,2.329 225.215,3.16 225.734,4.172 C226.252,5.185 226.509,6.327 226.509,7.598 C226.509,9.237 226.112,10.713 225.317,12.026 C224.521,13.341 223.475,14.381 222.176,15.145 C220.878,15.912 219.611,16.379 218.372,16.551 C217.135,16.724 215.404,16.811 213.184,16.811 L205.305,16.811 L205.305,16.811 Z M212.552,13.061 L213.993,13.061 C215.523,13.061 216.652,12.895 217.381,12.559 C218.109,12.226 218.735,11.607 219.261,10.702 C219.785,9.797 220.048,8.698 220.048,7.404 C220.048,4.949 218.841,3.719 216.424,3.719 L214.557,3.719 L212.552,13.061 Z" id="Shape"></path>
                </g>
            </g>
        </g>
    </g>
</svg>